{"title":"Neverland.2011.R5.XviD.Ac3.Feel-Free","uid":7002263,"size":1755457757,"categoryP":"video","categoryS":"movies","magnet":"?xt=urn:btih:fa79d0dc810c8dd2725cf7049df0161c4f874dc3&amp;dn=Neverland.2011.R5.XviD.Ac3.Feel-Free&amp;tr=udp%3A%2F%2Ftracker.openbittorrent.com%3A80&amp;tr=udp%3A%2F%2Fopen.demonii.com%3A1337&amp;tr=udp%3A%2F%2Ftracker.coppersurfer.tk%3A6969&amp;tr=udp%3A%2F%2Fexodus.desync.com%3A6969","seeders":0,"leechers":0,"uploader":".BONE.","files":9,"time":1328101761,"description":"Genre: Adventure | Fantasy\nLanguage:English\n &lt;a href=&quot;\nhttp://www.imdb.com/title/tt1720619/&quot; rel=&quot;nofollow&quot; target=&quot;_NEW&quot;&gt;\nhttp://www.imdb.com/title/tt1720619/&lt;/a&gt;\n\nSource:Neverlend.2011.P.DVD.ELEKTRI4KA Thanks!\nEncoder:Tony\n\nFormat : AVI\nFormat/Info : Audio Video Interleave\nFile size : 1.63 GiB\nDuration : 2h 40mn\nOverall bit rate : 1 455 Kbps\n\nVideo\nID : 0\nFormat : MPEG-4 Visual\nFormat profile : Advanced Simple@L5\nFormat settings, BVOP : 1\nFormat settings, QPel : No\nFormat settings, GMC : No warppoints\nFormat settings, Matrix : Default (H.263)\nCodec ID : XVID\nCodec ID/Hint : XviD\nDuration : 2h 40mn\nBit rate : 997 Kbps\nWidth : 640 pixels\nHeight : 352 pixels\nDisplay aspect ratio : 16:9\nFrame rate : 25.000 fps\nColor space : YUV\nChroma subsampling : 4:2:0\nBit depth : 8 bits\nScan type : Progressive\nCompression mode : Lossy\nBits/(Pixel*Frame) : 0.177\nStream size : 1.12 GiB (69%)\nWriting library : XviD 1.2.1 (UTC 2008-12-04)\n\nAudio\nID : 1\nFormat : AC-3\nFormat/Info : Audio Coding 3\nMode extension : CM (complete main)\nCodec ID : 2000\nDuration : 2h 40mn\nBit rate mode : Constant\nBit rate : 448 Kbps\nChannel(s) : 6 channels\nChannel positions : Front: L C R, Side: L R, LFE\nSampling rate : 48.0 KHz\nBit depth : 16 bits\nCompression mode : Lossy\nStream size : 515 MiB (31%)\nAlignment : Aligned on interleaves\nInterleave, duration : 40 ms (1.00 video frame)\nInterleave, preload duration : 512 ms\n\n\nPlot:\nRaised on the streets of turn-of-the century London, orphaned Peter and his pals survive by their fearless wits as cunning young pickpockets\n &lt;a href=&quot;\nhttp://shareimage.org/images/mwiycvp21tnsnrm12ot7.png&quot; rel=&quot;nofollow&quot; target=&quot;_NEW&quot;&gt;\nhttp://shareimage.org/images/mwiycvp21tnsnrm12ot7.png&lt;/a&gt; &lt;a href=&quot;\nhttp://shareimage.org/images/iyjmbi48hp1f6500y80b.png&quot; rel=&quot;nofollow&quot; target=&quot;_NEW&quot;&gt;\nhttp://shareimage.org/images/iyjmbi48hp1f6500y80b.png&lt;/a&gt; &lt;a href=&quot;\nhttp://shareimage.org/images/1mi9vzwdeib06sgqtfef.png&quot; rel=&quot;nofollow&quot; target=&quot;_NEW&quot;&gt;\nhttp://shareimage.org/images/1mi9vzwdeib06sgqtfef.png&lt;/a&gt; &lt;a href=&quot;\nhttp://shareimage.org/images/4fffjtc9qhxfxz7yi1ak.png&quot; rel=&quot;nofollow&quot; target=&quot;_NEW&quot;&gt;\nhttp://shareimage.org/images/4fffjtc9qhxfxz7yi1ak.png&lt;/a&gt;\n\n","torrent":{"xt":"urn:btih:fa79d0dc810c8dd2725cf7049df0161c4f874dc3","amp;dn":"Neverland.2011.R5.XviD.Ac3.Feel-Free","amp;tr":["udp%3A%2F%2Ftracker.openbittorrent.com%3A80","udp%3A%2F%2Fopen.demonii.com%3A1337","udp%3A%2F%2Ftracker.coppersurfer.tk%3A6969","udp%3A%2F%2Fexodus.desync.com%3A6969"],"infoHash":"fa79d0dc810c8dd2725cf7049df0161c4f874dc3","infoHashBuffer":{"type":"Buffer","data":[250,121,208,220,129,12,141,210,114,92,247,4,157,240,22,28,79,135,77,195]},"announce":[],"urlList":[]}}